<?xml version="1.0" standalone="no"?>
<!DOCTYPE svg PUBLIC "-//W3C//DTD SVG 20010904//EN"
 "http://www.w3.org/TR/2001/REC-SVG-20010904/DTD/svg10.dtd">
<svg version="1.0" xmlns="http://www.w3.org/2000/svg"
 width="14150.000000pt" height="12542.000000pt" viewBox="0 0 14150.000000 12542.000000"
 preserveAspectRatio="xMidYMid meet">

<g transform="translate(0.000000,12542.000000) scale(0.100000,-0.100000)"
fill="#ffffff" stroke="none">
<path d="M73222 109610 c-273 -35 -768 -196 -1017 -332 -529 -288 -1041 -797
-1367 -1358 -138 -238 -138 -237 -413 -965 -293 -773 -1099 -2931 -1813 -4855
-99 -267 -233 -627 -297 -800 -65 -173 -168 -452 -230 -620 -62 -168 -188
-507 -280 -755 -92 -247 -234 -630 -315 -850 -308 -834 -1666 -4497 -1867
-5040 -63 -170 -152 -411 -198 -535 -46 -124 -158 -427 -250 -675 -92 -247
-227 -612 -300 -810 -398 -1077 -466 -1258 -473 -1272 -5 -8 -110 -61 -233
-117 -251 -115 -371 -170 -1359 -621 -382 -174 -1005 -459 -1385 -632 -1118
-511 -1705 -779 -1945 -888 -124 -57 -385 -176 -580 -265 -195 -89 -584 -267
-865 -395 -280 -128 -1444 -659 -2585 -1180 -1141 -521 -2280 -1041 -2530
-1155 -409 -187 -826 -377 -1502 -686 -126 -57 -331 -151 -458 -209 -126 -58
-332 -152 -457 -209 -529 -241 -1416 -646 -1788 -816 -220 -100 -530 -242
-690 -315 -159 -73 -470 -215 -690 -315 -220 -100 -454 -207 -520 -237 -66
-30 -453 -207 -860 -393 -407 -186 -794 -363 -860 -393 -66 -30 -379 -173
-695 -317 -1171 -534 -2289 -1045 -2760 -1260 -195 -89 -402 -184 -460 -210
-58 -26 -314 -143 -570 -260 -256 -117 -694 -317 -975 -445 -280 -128 -667
-305 -860 -393 -796 -363 -1419 -648 -1900 -867 -764 -349 -1383 -631 -1840
-840 -683 -312 -1750 -799 -2480 -1132 -379 -173 -897 -410 -1150 -525 -253
-116 -665 -304 -915 -418 -250 -114 -1211 -553 -2135 -975 -924 -422 -1959
-894 -2300 -1050 -847 -386 -1278 -583 -2415 -1103 -289 -132 -653 -298 -810
-370 -157 -71 -442 -202 -635 -290 -522 -238 -1223 -559 -1735 -792 -250 -114
-747 -342 -1105 -505 -357 -164 -697 -319 -755 -345 -491 -222 -858 -393 -975
-454 -890 -465 -1509 -1139 -1827 -1986 -49 -132 -121 -380 -142 -486 -27
-144 -39 -333 -39 -634 1 -344 14 -473 73 -705 128 -503 352 -938 695 -1352
98 -118 382 -403 485 -487 348 -284 1192 -694 6255 -3036 336 -155 759 -351
940 -435 182 -84 798 -369 1370 -633 572 -264 1191 -550 1375 -635 1196 -552
1833 -847 4390 -2027 2528 -1167 4379 -2020 4955 -2285 105 -48 467 -214 805
-370 2544 -1170 3214 -1474 3300 -1499 88 -25 273 -54 435 -67 179 -14 521 -7
678 15 677 94 1341 517 1737 1106 199 297 354 674 405 990 38 239 38 705 0
939 -39 231 -113 445 -244 703 -243 479 -504 757 -977 1039 -204 121 -424 228
-1279 624 -181 84 -370 172 -420 195 -127 59 -1547 717 -3100 1435 -451 209
-1318 609 -1795 830 -339 157 -1293 598 -2935 1357 -225 104 -1402 648 -2615
1208 -1213 560 -2450 1131 -2750 1270 -300 138 -1305 603 -2235 1032 -929 429
-1705 788 -1723 797 l-32 17 57 28 c105 52 938 433 3668 1681 611 279 1211
553 1335 610 594 271 709 324 1040 475 363 166 1484 678 2305 1052 253 116
665 304 915 418 250 114 714 326 1030 470 316 144 629 287 695 317 120 55 849
388 1485 678 184 84 495 226 690 315 195 89 452 206 570 260 118 54 348 158
510 233 162 74 500 228 750 342 250 114 556 254 680 310 124 57 509 232 855
390 347 158 659 301 695 317 36 17 112 52 170 78 117 53 1105 504 1820 830
256 117 537 245 625 285 88 40 369 168 625 285 256 117 537 245 625 285 88 40
473 215 855 390 382 175 767 350 855 390 88 40 394 179 680 310 286 131 592
270 680 310 88 40 369 168 625 285 256 117 818 373 1250 570 432 197 1069 487
1415 645 347 158 702 320 790 360 88 40 444 202 790 360 958 437 1186 541
1360 620 88 40 518 236 955 435 437 199 1225 558 1750 797 4471 2037 5241
2386 5247 2379 6 -5 -44 -141 -607 -1666 -94 -256 -218 -591 -275 -745 -57
-154 -165 -446 -240 -650 -75 -203 -168 -453 -205 -555 -37 -102 -175 -473
-305 -825 -130 -352 -298 -804 -372 -1005 -74 -201 -233 -630 -353 -955 -120
-324 -302 -817 -405 -1095 -103 -278 -231 -624 -285 -770 -54 -146 -159 -429
-233 -630 -74 -201 -197 -531 -272 -735 -75 -203 -198 -534 -272 -735 -74
-201 -179 -484 -233 -630 -54 -146 -250 -674 -435 -1175 -639 -1727 -907
-2451 -1005 -2715 -210 -566 -409 -1105 -683 -1845 -365 -987 -2511 -6782
-2708 -7312 -82 -222 -216 -585 -299 -808 -389 -1049 -460 -1241 -567 -1530
-63 -170 -152 -411 -198 -535 -46 -124 -247 -668 -448 -1210 -201 -542 -433
-1169 -517 -1395 -83 -225 -219 -591 -301 -812 -82 -222 -216 -584 -298 -805
-186 -504 -438 -1182 -631 -1703 -82 -220 -373 -1007 -648 -1750 -275 -742
-979 -2644 -1565 -4225 -586 -1581 -1187 -3206 -1337 -3610 -150 -404 -345
-933 -435 -1175 -154 -414 -703 -1897 -1120 -3025 -103 -278 -245 -662 -316
-855 -166 -448 -373 -1006 -554 -1495 -78 -212 -197 -531 -263 -710 -66 -179
-226 -611 -355 -960 -129 -349 -380 -1026 -557 -1505 -177 -478 -382 -1032
-455 -1230 -73 -198 -262 -706 -418 -1130 -268 -725 -355 -958 -692 -1870 -75
-203 -174 -471 -220 -595 -46 -124 -199 -538 -340 -920 -141 -382 -317 -857
-390 -1055 -73 -198 -188 -507 -254 -687 -67 -181 -175 -475 -242 -655 -66
-181 -174 -472 -239 -648 -152 -412 -317 -860 -520 -1410 -355 -964 -343 -923
-361 -1227 -16 -280 0 -606 41 -803 94 -448 394 -990 722 -1301 334 -316 777
-557 1223 -664 226 -54 326 -65 605 -65 286 0 384 11 625 72 360 90 707 264
1000 500 267 215 566 582 657 805 57 141 815 2166 1703 4553 158 424 374 1004
480 1290 107 286 309 831 450 1210 141 380 321 863 400 1075 79 212 238 642
355 955 116 314 300 806 407 1095 190 510 374 1006 777 2093 108 290 284 764
392 1055 108 290 261 703 340 917 80 215 212 570 294 790 137 370 275 742 707
1905 91 245 252 679 358 965 106 286 261 705 345 930 84 226 239 644 345 930
106 286 268 723 360 970 92 248 248 668 347 935 99 267 234 631 300 810 66
179 192 516 278 750 87 234 226 610 310 835 203 549 452 1220 595 1605 65 173
161 434 215 580 94 254 203 549 795 2145 366 988 570 1539 745 2010 150 406
522 1411 1095 2955 174 470 361 974 415 1120 54 146 241 650 415 1120 458
1236 634 1710 745 2010 54 146 196 528 315 850 119 322 261 704 315 850 54
146 225 607 380 1025 155 418 356 960 447 1205 90 245 225 607 298 805 74 198
192 518 264 710 71 193 204 553 296 800 92 248 254 686 361 975 107 289 255
687 329 885 113 306 742 2000 1352 3645 90 245 216 582 278 750 140 375 666
1795 820 2210 62 168 253 683 425 1145 171 462 386 1040 477 1285 91 245 259
697 373 1005 114 308 283 763 375 1010 158 426 324 874 665 1790 82 220 250
675 375 1010 125 336 314 844 420 1130 106 286 295 792 418 1125 916 2463
1671 4489 2028 5440 147 393 281 749 297 790 l28 75 134 67 c119 60 1001 469
1510 701 102 47 419 191 705 322 1205 550 3361 1528 3925 1780 52 23 388 174
745 335 1033 465 1644 734 1650 728 15 -15 846 -2239 1843 -4928 83 -223 231
-623 330 -890 434 -1170 1121 -3025 1869 -5050 74 -201 188 -509 253 -685 65
-176 227 -615 360 -975 133 -360 280 -758 327 -885 47 -126 170 -459 273 -740
103 -280 378 -1025 610 -1655 586 -1590 1154 -3134 1375 -3740 29 -80 137
-374 240 -655 246 -672 504 -1383 570 -1571 l53 -150 -181 -395 c-173 -379
-2278 -4941 -2990 -6479 -340 -736 -474 -1026 -1087 -2350 -172 -371 -468
-1010 -657 -1420 -757 -1636 -1153 -2491 -2100 -4535 -2207 -4761 -3227 -6962
-4195 -9045 -165 -355 -373 -802 -463 -995 -179 -385 -629 -1349 -720 -1543
l-58 -122 -86 46 c-217 117 -1682 945 -3096 1749 -1828 1040 -2698 1529 -3410
1920 -305 168 -524 276 -625 310 -440 148 -978 163 -1464 41 -450 -114 -823
-330 -1171 -680 -313 -315 -486 -595 -638 -1031 -81 -234 -101 -371 -113 -770
-7 -250 3 -388 42 -565 116 -518 343 -938 704 -1301 218 -219 293 -271 845
-589 266 -154 2060 -1179 2655 -1517 3459 -1969 4156 -2366 4163 -2373 8 -7
-105 -257 -705 -1560 -382 -828 -3002 -6504 -3656 -7920 -933 -2022 -2259
-4900 -2792 -6065 -106 -231 -241 -526 -300 -655 -270 -588 -700 -1535 -795
-1750 -246 -557 -243 -1239 7 -1874 58 -148 154 -340 220 -442 164 -253 515
-603 791 -788 53 -35 156 -93 229 -129 753 -370 1603 -368 2341 3 409 207 713
474 991 873 109 156 -17 -107 1246 2617 383 828 879 1897 1100 2375 221 479
544 1176 717 1550 513 1109 743 1606 1238 2675 157 340 522 1128 840 1815 174
376 403 870 445 960 23 50 111 239 195 420 156 338 434 936 555 1195 37 80
142 305 233 500 910 1958 1658 3545 1681 3568 5 4 93 -45 1201 -673 2258
-1280 5924 -3365 10015 -5695 1402 -798 2273 -1294 2725 -1552 648 -369 3364
-1916 3785 -2156 179 -102 701 -399 1160 -660 459 -262 1011 -575 1225 -697
215 -122 523 -298 685 -390 162 -92 423 -241 580 -330 301 -172 1169 -665
1530 -870 270 -154 1110 -631 1680 -955 577 -328 1548 -879 2330 -1323 1468
-832 1452 -824 1691 -921 340 -138 637 -216 1029 -268 149 -20 635 -17 790 5
485 69 891 221 1284 481 267 177 463 350 627 556 371 463 585 955 676 1550 25
160 27 201 27 475 1 320 -9 437 -60 715 -48 264 -55 284 -492 1480 -190 520
-1046 2849 -1217 3310 -46 124 -162 439 -258 700 -96 261 -284 770 -417 1130
-133 360 -273 738 -310 840 -37 102 -145 394 -240 650 -95 256 -203 548 -240
650 -37 102 -145 394 -240 650 -95 256 -203 548 -240 650 -37 102 -136 370
-220 595 -83 226 -183 496 -222 600 -62 170 -206 559 -645 1745 -522 1413
-643 1739 -956 2585 -157 424 -346 934 -420 1135 -185 500 -986 2664 -1107
2990 -54 146 -167 450 -250 675 -84 226 -219 591 -301 813 -82 221 -216 583
-298 805 -82 221 -202 544 -266 717 -64 173 -154 416 -200 540 -46 124 -157
425 -248 670 -194 522 -813 2193 -1098 2962 -109 295 -250 675 -313 845 -63
169 -182 490 -264 713 -83 223 -264 711 -402 1085 -139 374 -296 799 -350 945
-54 146 -330 891 -613 1655 -283 765 -651 1757 -817 2205 -166 448 -369 996
-451 1218 -82 221 -216 584 -299 807 -82 223 -217 587 -300 810 -82 223 -218
588 -301 813 -382 1031 -459 1239 -581 1567 -71 193 -192 519 -268 725 -76
206 -197 533 -269 725 -212 574 -668 1806 -894 2415 -977 2636 -1217 3290
-1217 3308 0 82 347 861 1490 3352 153 333 425 925 605 1315 180 391 376 816
435 945 135 295 2478 5368 2926 6338 85 182 223 482 308 665 85 182 359 775
609 1317 467 1012 902 1953 1442 3120 169 366 608 1315 975 2110 367 795 900
1949 1185 2565 1631 3531 4378 9482 4845 10495 128 278 390 847 582 1265 449
975 839 1825 890 1940 118 265 250 718 282 968 34 259 29 958 -8 1165 -36 200
-124 481 -215 686 -298 671 -822 1203 -1483 1502 -281 127 -586 211 -928 255
-165 22 -698 19 -870 -4 -423 -58 -796 -169 -1255 -377 -88 -39 -250 -113
-360 -162 -252 -114 -2495 -1134 -3405 -1548 -377 -172 -935 -426 -1240 -565
-305 -139 -838 -382 -1185 -540 -346 -158 -702 -320 -790 -360 -88 -40 -369
-168 -625 -285 -256 -117 -537 -245 -625 -285 -88 -40 -342 -156 -565 -258
-223 -101 -792 -361 -1265 -577 -473 -216 -1170 -534 -1550 -707 -1334 -609
-1713 -782 -2055 -938 -190 -86 -448 -204 -575 -262 -126 -58 -302 -138 -390
-178 -88 -40 -518 -235 -955 -435 -1441 -657 -3820 -1737 -4755 -2160 -1031
-467 -1961 -885 -2203 -991 l-133 -58 -14 32 c-43 103 -1119 2995 -1750 4702
-606 1642 -1617 4350 -1760 4715 -465 1193 -1469 2040 -2595 2190 -175 24
-689 36 -818 20z m27099 -8272 c-16 -35 -95 -207 -176 -383 -81 -176 -195
-426 -255 -555 -247 -540 -3803 -8242 -4905 -10625 -186 -401 -503 -1088 -705
-1525 -202 -437 -591 -1279 -865 -1870 -273 -591 -637 -1376 -807 -1745 -352
-761 -596 -1287 -871 -1880 -104 -225 -245 -529 -312 -675 -136 -295 -694
-1500 -1225 -2645 -714 -1541 -1314 -2832 -1495 -3220 -103 -220 -205 -440
-228 -488 -26 -57 -43 -84 -48 -75 -13 24 -325 857 -1077 2878 -347 933 -1030
2770 -1542 4150 -105 283 -251 677 -325 875 -184 496 -1359 3664 -1707 4605
-391 1058 -459 1239 -583 1575 -73 198 -271 734 -440 1190 -551 1491 -755
2047 -755 2059 0 8 344 179 605 301 105 49 235 110 290 135 483 227 1806 838
3040 1405 440 202 960 440 1155 530 492 226 1228 563 2660 1217 674 308 1279
585 1345 615 66 30 431 197 810 370 380 174 848 387 1040 475 193 88 451 206
575 263 124 56 434 198 690 315 520 238 1027 469 2115 965 407 185 916 417
1130 515 877 400 1941 884 2790 1269 50 22 93 41 97 41 4 0 -6 -28 -21 -62z
m-26604 -1019 c118 -309 489 -1308 778 -2094 57 -154 163 -440 235 -635 377
-1017 670 -1817 670 -1830 0 -5 -26 -21 -57 -35 -155 -73 -1333 -612 -2133
-977 -410 -187 -824 -376 -920 -420 -413 -189 -1090 -495 -1167 -529 l-42 -18
10 27 c6 15 126 338 266 717 378 1021 544 1470 928 2505 191 514 414 1115 495
1335 309 834 759 2043 790 2123 18 48 37 81 43 79 7 -2 54 -113 104 -248z
m14593 -39399 c658 -1769 813 -2187 1323 -3560 107 -289 255 -685 327 -880 73
-195 176 -474 230 -620 54 -146 187 -503 295 -795 173 -466 560 -1510 955
-2575 70 -190 293 -790 495 -1335 202 -544 425 -1145 495 -1335 70 -190 549
-1483 1065 -2875 898 -2424 1110 -2997 1335 -3605 56 -151 146 -394 200 -540
54 -146 247 -668 430 -1160 346 -934 1099 -2966 1587 -4285 157 -423 412
-1114 568 -1535 633 -1711 1078 -2913 1428 -3860 74 -201 196 -529 270 -730
74 -201 228 -617 342 -925 114 -308 268 -724 342 -925 74 -201 166 -448 203
-550 37 -102 145 -394 240 -650 262 -709 732 -1985 841 -2283 23 -65 25 -78
12 -73 -23 9 -1819 1026 -3248 1838 -121 69 -863 491 -1650 938 -786 447
-1558 886 -1715 975 -521 296 -2841 1616 -3130 1781 -157 89 -411 234 -565
321 -1191 678 -2321 1321 -2640 1503 -209 119 -695 396 -1080 615 -781 445
-2211 1259 -4095 2333 -2820 1606 -5687 3245 -5699 3257 -6 6 14 51 207 481
612 1359 2516 5501 4632 10079 799 1729 2117 4579 2465 5330 158 341 300 647
315 680 42 91 651 1403 837 1805 561 1207 792 1702 1168 2510 295 631 441 942
753 1603 30 65 59 114 63 110 4 -4 184 -483 399 -1063z"/>
</g>
</svg>
